<?xml version="1.0" standalone="no"?>
<svg xmlns:xlink="http://www.w3.org/1999/xlink" id="wave" style="transform:rotate(180deg); transition: 0.3s" viewBox="0 0 1440 250" version="1.1" xmlns="http://www.w3.org/2000/svg"><defs><linearGradient id="sw-gradient-0" x1="0" x2="0" y1="1" y2="0"><stop stop-color="rgba(62, 65.193, 243, 1)" offset="0%"/><stop stop-color="rgba(11, 255, 205.408, 1)" offset="100%"/></linearGradient></defs><path style="transform:translate(0, 0px); opacity:1" fill="url(#sw-gradient-0)" d="M0,25L60,29.2C120,33,240,42,360,70.8C480,100,600,150,720,175C840,200,960,200,1080,191.7C1200,183,1320,167,1440,145.8C1560,125,1680,100,1800,87.5C1920,75,2040,75,2160,91.7C2280,108,2400,142,2520,145.8C2640,150,2760,125,2880,125C3000,125,3120,150,3240,162.5C3360,175,3480,175,3600,162.5C3720,150,3840,125,3960,133.3C4080,142,4200,183,4320,166.7C4440,150,4560,75,4680,50C4800,25,4920,50,5040,54.2C5160,58,5280,42,5400,54.2C5520,67,5640,108,5760,116.7C5880,125,6000,100,6120,87.5C6240,75,6360,75,6480,100C6600,125,6720,175,6840,162.5C6960,150,7080,75,7200,54.2C7320,33,7440,67,7560,87.5C7680,108,7800,117,7920,112.5C8040,108,8160,92,8280,100C8400,108,8520,142,8580,158.3L8640,175L8640,250L8580,250C8520,250,8400,250,8280,250C8160,250,8040,250,7920,250C7800,250,7680,250,7560,250C7440,250,7320,250,7200,250C7080,250,6960,250,6840,250C6720,250,6600,250,6480,250C6360,250,6240,250,6120,250C6000,250,5880,250,5760,250C5640,250,5520,250,5400,250C5280,250,5160,250,5040,250C4920,250,4800,250,4680,250C4560,250,4440,250,4320,250C4200,250,4080,250,3960,250C3840,250,3720,250,3600,250C3480,250,3360,250,3240,250C3120,250,3000,250,2880,250C2760,250,2640,250,2520,250C2400,250,2280,250,2160,250C2040,250,1920,250,1800,250C1680,250,1560,250,1440,250C1320,250,1200,250,1080,250C960,250,840,250,720,250C600,250,480,250,360,250C240,250,120,250,60,250L0,250Z"/></svg>